# xmcd CD database file
#
# Track frame offsets:
#	150
#	17087
#	29925
#	51807
#	73892
#	89892
#	105840
#	120495
#	140992
#	161360
#	188740
#
# Disc length: 2738 seconds
#
# Revision: 2
# Processed by: cddbd v1.5PL3 Copyright (c) Steve Scherf et al.
# Submitted via: CDex 1.51
#
DISCID=9e0ab00b
DTITLE=Robert Ealey - Turn Out The Lights
DYEAR=1996
DGENRE=Blues
TTITLE0=Turn Out the Lights
TTITLE1=One Love One Kiss
TTITLE2=She's a Rocket
TTITLE3=I had a Dream
TTITLE4=Tica
TTITLE5=Havin' a Party
TTITLE6=All My Worries
TTITLE7=If You Need Me
TTITLE8=The River
TTITLE9=Please, Mr. Johnson
TTITLE10=Goin' to New York
EXTD=YEAR: 1996
EXTT0=
EXTT1=
EXTT2=
EXTT3=
EXTT4=
EXTT5=
EXTT6=
EXTT7=
EXTT8=
EXTT9=
EXTT10=
PLAYORDER=
